<?xml version="1.0" encoding="UTF-8"?>
<!DOCTYPE svg PUBLIC "-//W3C//DTD SVG 1.1//EN" "http://www.w3.org/Graphics/SVG/1.1/DTD/svg11.dtd">
<!-- Creator: CorelDRAW X7 -->
<svg xmlns="http://www.w3.org/2000/svg" xml:space="preserve" width="248.068mm" height="56.5972mm" version="1.1" style="shape-rendering:geometricPrecision; text-rendering:geometricPrecision; image-rendering:optimizeQuality; fill-rule:evenodd; clip-rule:evenodd"
viewBox="0 0 24410 5569"
 xmlns:xlink="http://www.w3.org/1999/xlink">
 <defs>
  <style type="text/css">
   <![CDATA[
    .fil2 {fill:none}
    .fil1 {fill:#727271}
    .fil0 {fill:#BBA09B}
   ]]>
  </style>
 </defs>
 <g id="Ebene_x0020_1">
  <metadata id="CorelCorpID_0Corel-Layer"/>
  <path class="fil0" d="M23212 2239c13,-21 53,-13 86,20 37,33 53,77 41,98l-102 183c220,-183 461,-363 550,-338l8 0c123,37 143,114 115,216 -13,45 -41,98 -70,159 -53,106 -114,224 -114,224 131,86 571,-301 575,-301 12,-17 57,-70 90,-33 37,33 12,41 -4,61 0,0 -445,526 -657,388 -183,-119 -94,-298 -16,-457 16,-33 33,-65 45,-98 -233,122 -775,640 -791,657 -13,16 -49,4 -82,-25 -33,-37 -53,-77 -41,-98l63 -113c-135,111 -294,201 -397,134 -184,-119 -94,-298 -16,-457 16,-33 32,-65 44,-98 -232,122 -774,640 -791,657 -12,16 -49,4 -81,-25 -33,-37 -53,-77 -41,-98l59 -106c-103,88 -181,147 -243,180 -187,97 -330,40 -326,-159 -147,138 -297,265 -387,224 -33,-12 -57,-37 -82,-61 -38,-50 -55,-104 -50,-161 -260,228 -569,433 -378,-92 4,-16 8,-29 12,-45l-16 8c-110,57 -253,175 -281,224l0 4c-13,25 -49,17 -86,-16 -37,-32 -53,-77 -45,-98 0,-4 249,-534 237,-530 -221,78 -808,795 -812,799 -12,17 -49,5 -81,-24 -33,-33 -54,-78 -41,-98l74 -134c-190,138 -300,160 -364,93 -98,-106 -65,-297 -77,-440 -13,-102 -661,628 -665,632 -12,16 -49,4 -82,-29 -36,-32 -53,-77 -40,-97l127 -207c-284,201 -701,447 -874,292 -89,-81 -126,-171 -122,-261 0,-65 20,-126 53,-187 33,-62 78,-119 126,-176 135,-151 319,-269 412,-265 347,12 159,400 159,400 -12,24 -49,16 -81,-16 -37,-33 -57,-78 -49,-98 4,0 69,-143 53,-143 -78,-4 -245,106 -371,249 -49,53 -90,110 -123,167 -28,53 -44,110 -48,159 0,37 8,69 28,90 157,138 870,-377 993,-465l960 -1558c13,-20 53,-8 86,24 37,33 53,78 41,98l-893 1448c224,-171 452,-273 477,-4 4,37 8,302 8,302 15,18 122,-7 404,-255l240 -430c9,-21 49,-9 82,24 37,33 57,73 45,98l-74 126c127,-122 249,-224 327,-252 252,-86 212,191 130,440 12,-8 29,-16 41,-20 37,-17 69,-29 98,-29 65,-4 118,29 155,106 20,45 20,114 -12,208 -3,6 210,-169 340,-275 54,-88 127,-175 206,-239 184,-151 518,-159 587,78 17,40 4,65 -28,57 -33,-8 -74,-45 -90,-82 -82,-77 -281,17 -355,78 -151,122 -236,269 -281,456 143,-40 514,-473 514,-473 16,-16 53,-4 89,33 29,33 45,69 33,90 -8,20 -57,126 -33,240 15,88 442,-260 537,-336l124 -222c12,-21 53,-13 86,20 36,33 53,77 40,98l-102 183c221,-183 461,-363 551,-338l8 0c122,37 143,114 114,216 -12,45 -40,98 -69,159 -53,106 -114,224 -114,224 111,73 447,-197 547,-279l158 -283z"/>
  <path class="fil0" d="M16530 2585c8,-35 58,-80 74,-95 9,-14 18,-29 26,-43 9,-15 17,-31 33,-28l249 -303c53,-57 94,-89 94,-89 16,-17 57,0 85,36 33,33 49,78 33,94l-98 94c-86,98 -200,273 -155,461 24,118 12,212 -20,281 -21,37 -49,65 -78,90 -28,20 -61,36 -94,45 -57,12 -114,4 -159,-21 -141,-72 -150,-184 -135,-262 -204,141 -406,182 -481,185 13,142 -12,342 -187,514 -131,130 -273,195 -379,203 -49,5 -94,0 -131,-20 -61,-28 -110,-77 -134,-147 -17,-49 -13,-114 20,-187 118,-249 579,-457 673,-498 -8,-49 -25,-81 -29,-94 -12,-24 -12,-49 8,-57 290,-118 441,-269 494,-383 4,-16 12,-29 12,-41 -179,49 -404,249 -408,249 -7,7 -18,7 -31,3 -226,209 -888,782 -1053,478 -24,-43 -11,-125 27,-235 -241,169 -565,312 -745,211 -105,-59 -179,-166 -195,-283 -216,190 -530,416 -641,221 -57,-101 -29,-240 41,-379 89,-175 240,-359 334,-436 20,-16 61,0 94,37 32,36 45,77 24,93 -89,78 -236,253 -326,425 -57,114 -53,179 -12,199 111,17 349,-173 495,-303 25,-94 83,-190 157,-276 82,-89 176,-175 265,-240 119,-82 229,-131 274,-123 36,8 69,29 97,61 41,45 58,98 49,147 -4,37 -20,74 -40,114 -45,86 -127,176 -225,225 -191,98 -408,122 -420,122 -247,531 602,186 878,-57 69,-139 157,-297 256,-461 -4,0 24,-45 24,-45 9,-310 -1035,-269 -1035,-269 -20,0 -48,-16 -70,-39 -1,4 -2,8 -4,11l-228 261c-16,20 -57,4 -90,-29 -33,-37 -49,-77 -33,-98l229 -261c16,-20 51,-4 87,27 4,-9 11,-15 23,-15l1378 0c343,-534 685,-1011 690,-1015 12,-16 53,-8 85,29 33,32 49,77 37,93 0,4 -298,416 -616,893l1040 0c29,0 73,33 94,70 24,41 20,73 -8,73l-1220 0c-85,131 -171,265 -253,396l0 4c0,16 -8,24 -16,24 -69,113 -130,212 -180,299 0,7 -3,15 -7,23 -9,15 -20,31 -34,48 -101,182 -146,296 -117,348 58,109 584,-278 804,-449 -10,-22 -10,-42 3,-53 0,0 249,-220 445,-261 53,-12 106,5 151,49 40,41 65,90 65,143 4,33 -4,69 -25,106 -53,122 -204,277 -493,400l4 8c137,-14 436,-52 654,-298zm-43 181c4,3 8,7 13,11 37,33 53,77 45,98 0,4 -57,106 -49,110 16,8 49,8 81,0 29,-4 57,-16 82,-37 24,-16 49,-45 61,-73 29,-57 41,-131 20,-224 0,-54 -36,-58 62,-237l-139 159c-55,76 -115,140 -176,193zm-888 651c114,-114 159,-232 171,-338 -163,81 -461,244 -547,432 -20,41 -28,73 -28,94 16,4 33,4 53,4 98,-8 224,-69 351,-192zm-384 -1423c41,-65 82,-131 123,-196l-510 -20c122,49 322,130 387,216zm-1072 449c57,-17 118,-41 183,-70 86,-45 159,-130 204,-208 8,-16 12,-28 21,-45 -45,21 -98,53 -159,98 -82,61 -176,139 -249,225z"/>
  <path class="fil0" d="M11349 2687c-228,0 -416,-28 -567,-77 -20,41 -44,77 -65,118 -257,465 -432,926 -424,1130 228,-53 648,-584 1056,-1171zm-501 -179c159,32 359,49 603,32 241,-354 473,-717 645,-995 -123,-65 -266,-40 -412,41 -286,155 -588,518 -836,922zm1350 -1126c-17,-28 -21,-53 -13,-65l208 -257c12,-20 53,-4 86,29 33,32 49,73 37,93 0,4 -94,159 -241,400 45,49 86,110 122,184 21,40 17,69 -16,65 -29,0 -69,-37 -94,-74 -20,-36 -41,-69 -61,-97 -151,240 -347,550 -555,860 592,-69 1142,-322 1513,-644 168,-143 294,-298 380,-461 85,-159 122,-318 106,-477 -13,-131 -66,-257 -163,-371 -270,-310 -955,-453 -1725,-424 -759,28 -1599,236 -2215,623 -281,176 -522,425 -644,686 -53,118 -86,236 -86,350 0,106 25,208 82,298 65,106 183,204 363,285 36,17 73,62 81,94 8,37 -16,53 -53,37 -232,-110 -391,-253 -493,-408 -78,-130 -114,-261 -114,-395 0,-127 36,-253 93,-376 127,-269 372,-526 661,-705 620,-392 1468,-600 2239,-628 816,-33 1554,143 1876,514 138,159 212,330 232,497 17,176 -24,351 -114,518 -86,167 -220,326 -387,473 -392,339 -971,600 -1587,661 -53,8 -106,12 -155,16 -452,657 -950,1293 -1199,1321 -122,13 -183,-61 -199,-203 -25,-204 155,-702 428,-1191 12,-21 20,-41 32,-61 -16,-9 -28,-17 -44,-25 -131,-69 -225,-159 -290,-257l-4 0c-61,-98 -94,-192 -106,-285 -12,-106 12,-204 53,-282 12,-20 49,-12 86,21 32,32 53,77 40,98 -36,65 -53,150 -45,240 5,65 29,131 66,188l4 4c36,53 94,106 179,151 33,20 74,41 114,57 261,-437 588,-844 898,-1012 199,-106 399,-122 575,13l49 -78z"/>
  <path class="fil0" d="M8438 2398c16,40 4,65 -29,57 -33,-8 -73,-45 -90,-82 -81,-77 -281,17 -354,78 -151,122 -237,269 -282,456 143,-40 514,-473 514,-473 16,-16 53,-4 90,33 28,33 45,69 32,90 -8,20 -57,126 -32,240 16,98 546,-346 554,-350 17,-17 49,-37 82,-4 32,36 28,69 12,85 -269,241 -428,383 -538,441 -188,97 -331,40 -326,-159 -147,138 -298,265 -388,224 -33,-12 -57,-37 -81,-61 -41,-53 -58,-110 -49,-172 4,-49 20,-102 44,-155 12,-25 26,-51 42,-78 -88,18 -175,30 -225,25 -106,-8 -139,-36 -228,-142 -62,-74 -425,248 -425,248 -8,5 -220,363 -240,400 -12,20 -53,8 -86,-24 -36,-33 -53,-78 -41,-98l584 -942c12,-21 53,-8 85,24 37,33 53,78 41,98l-151 241c143,-70 339,-135 420,-33 37,41 25,135 78,139 66,3 159,-8 254,-32 43,-56 93,-109 145,-152 184,-151 518,-159 588,78zm-2508 81c-9,-28 -29,-61 -82,-61 -147,-8 -310,192 -379,306 -33,57 -57,110 -66,151 25,-12 62,-33 107,-61 101,-62 232,-163 375,-290l45 -45zm134 159c-4,21 -28,25 -57,8l-4 9c-147,126 -277,228 -379,293 -139,86 -371,106 -359,-126 1,-10 2,-21 4,-31 -133,106 -287,190 -387,125 -184,-119 -94,-298 -17,-457 17,-33 33,-65 45,-98 -232,122 -775,640 -791,657 -12,16 -49,4 -82,-25 -32,-37 -53,-77 -40,-98l59 -106c-104,88 -181,147 -243,180 -188,97 -330,40 -326,-159 -147,138 -298,265 -388,224 -32,-12 -57,-37 -81,-61 -41,-53 -57,-110 -49,-172 4,-49 20,-102 45,-155 53,-114 147,-240 253,-326 183,-151 518,-159 587,78 16,40 4,65 -29,57 -32,-8 -73,-45 -89,-82 -82,-77 -282,17 -355,78 -151,122 -237,269 -282,456 143,-40 514,-473 514,-473 17,-16 53,-4 90,33 29,33 45,69 33,90 -9,20 -58,126 -33,240 15,88 442,-260 536,-336l125 -222c12,-21 53,-13 85,20 37,33 53,77 41,98l-102 183c220,-183 461,-363 551,-338l8 0c122,37 142,114 114,216 -12,45 -41,98 -69,159 -53,106 -115,224 -115,224 95,62 351,-123 488,-231 88,-135 248,-323 406,-315 159,-4 208,77 248,139 151,-143 306,-310 453,-486 334,-399 563,-730 673,-901l85 -130c13,-21 49,-13 86,24 33,33 53,73 41,98 0,0 -33,53 -98,151 -400,628 -1913,3013 -1856,3148 17,41 0,61 -32,53 -33,-8 -74,-45 -86,-86 -49,-114 494,-1044 1016,-1904 -78,82 -155,159 -233,228 0,29 -4,45 -4,49zm-1223 -1782c-17,16 -57,0 -90,-37 -33,-32 -45,-77 -29,-93 17,-13 29,-41 33,-70 8,-49 0,-106 -37,-163 -32,-57 -93,-114 -187,-171 -673,-379 -1998,-49 -2655,257 -314,147 -1085,583 -873,1032 98,212 441,330 775,444 192,69 383,135 542,224 1155,649 -285,2043 -1419,2064 -412,20 -893,-175 -901,-587 -4,-188 143,-433 506,-722 16,-16 57,4 89,41 33,32 45,77 25,89 -351,282 -489,510 -485,677 4,261 456,290 636,282 991,-25 2418,-1244 1566,-1725 -143,-78 -326,-143 -514,-208 -387,-135 -783,-269 -938,-600 -249,-534 465,-999 856,-1182 702,-327 2056,-612 2773,-204 147,85 249,187 306,289 62,98 78,192 70,261 -8,45 -25,82 -49,102z"/>
  <path class="fil1" d="M3173 5550l69 0 0 -648 2 0 285 648 30 0 280 -648 2 0 0 648 69 0 0 -735 -98 0 -268 617 -268 -617 -103 0 0 735zm931 0l467 0 0 -62 -398 0 0 -287 357 0 0 -62 -357 0 0 -262 381 0 0 -62 -450 0 0 735zm616 0l69 0 0 -644 2 0 448 644 88 0 0 -735 -68 0 0 644 -3 0 -447 -644 -89 0 0 735zm972 0l68 0 0 -673 252 0 0 -62 -572 0 0 62 252 0 0 673zm267 0l71 0 84 -195 389 0 80 195 77 0 -310 -735 -70 0 -321 735zm519 -257l-337 0 171 -403 166 403zm288 257l411 0 0 -62 -342 0 0 -673 -69 0 0 735zm587 0l69 0 0 -673 251 0 0 -62 -571 0 0 62 251 0 0 673zm502 -673l145 0c145,0 173,80 173,131 0,51 -28,131 -173,131l-145 0 0 -262zm-69 673l69 0 0 -349 128 0 206 349 78 0 -214 -353c81,-10 188,-49 188,-189 0,-193 -203,-193 -261,-193l-194 0 0 735zm521 0l72 0 83 -195 389 0 80 195 77 0 -309 -735 -71 0 -321 735zm519 -257l-337 0 171 -403 166 403zm288 257l69 0 0 -735 -69 0 0 735zm270 0l69 0 0 -644 2 0 448 644 88 0 0 -735 -69 0 0 644 -2 0 -447 -644 -89 0 0 735zm809 0l466 0 0 -62 -398 0 0 -287 358 0 0 -62 -358 0 0 -262 381 0 0 -62 -449 0 0 735zm684 -673l146 0c144,0 172,80 172,131 0,51 -28,131 -172,131l-146 0 0 -262zm-68 673l68 0 0 -349 128 0 207 349 78 0 -214 -353c81,-10 188,-49 188,-189 0,-193 -204,-193 -262,-193l-193 0 0 735zm616 0l68 0 0 -735 -68 0 0 735zm270 0l68 0 0 -644 3 0 447 644 89 0 0 -735 -69 0 0 644 -2 0 -448 -644 -88 0 0 735zm1305 -403c82,-44 164,-89 164,-195 0,-93 -79,-156 -166,-156 -98,0 -185,62 -185,167 0,68 48,125 89,175 -85,52 -168,103 -168,217 0,131 100,214 224,214 103,0 170,-52 229,-132l110 119 92 0 -167 -176 133 -235 -70 0 -106 191 -179 -189zm-7 -288c59,0 102,40 102,98 0,78 -76,118 -135,148 -31,-37 -79,-92 -79,-143 0,-61 50,-103 112,-103zm152 535c-40,60 -99,113 -176,113 -93,0 -167,-60 -167,-154 0,-87 74,-132 140,-171l203 212zm630 156l235 0c99,0 246,-36 246,-205 0,-103 -68,-174 -164,-181l0 -2c87,-18 132,-78 132,-153 0,-166 -125,-194 -237,-194l-212 0 0 735zm68 -673l152 0c87,0 160,29 160,132 0,46 -27,124 -169,124l-143 0 0 -256zm0 318l168 0c87,0 176,43 176,152 0,52 -26,141 -187,141l-157 0 0 -293zm586 355l467 0 0 -62 -398 0 0 -287 357 0 0 -62 -357 0 0 -262 381 0 0 -62 -450 0 0 735zm521 0l72 0 83 -195 389 0 80 195 77 0 -309 -735 -71 0 -321 735zm519 -257l-337 0 171 -403 166 403zm811 -478l-69 0 0 436c0,105 -28,256 -199,256 -172,0 -200,-151 -200,-256l0 -436 -68 0 0 454c0,157 67,300 268,300 200,0 268,-143 268,-300l0 -454zm351 735l69 0 0 -673 251 0 0 -62 -571 0 0 62 251 0 0 673zm596 0l69 0 0 -316 270 -419 -77 0 -227 349 -223 -349 -82 0 270 419 0 316zm983 -157c-52,79 -143,114 -217,114 -192,0 -312,-141 -312,-324 0,-183 120,-324 312,-324 74,0 152,31 197,99l57 -46c-65,-83 -154,-116 -254,-116 -224,0 -380,162 -380,387 0,224 156,386 380,386 108,0 204,-38 273,-134l-56 -42zm134 -210c0,224 156,386 381,386 224,0 380,-162 380,-386 0,-225 -156,-387 -380,-387 -225,0 -381,162 -381,387zm69 0c0,-183 119,-324 312,-324 192,0 311,141 311,324 0,183 -119,324 -311,324 -193,0 -312,-141 -312,-324zm750 367l72 0 83 -195 389 0 80 195 77 0 -309 -735 -71 0 -321 735zm519 -257l-337 0 171 -403 166 403zm838 100c-52,79 -144,114 -217,114 -193,0 -312,-141 -312,-324 0,-183 119,-324 312,-324 73,0 151,31 197,99l56 -46c-64,-83 -154,-116 -253,-116 -225,0 -381,162 -381,387 0,224 156,386 381,386 108,0 203,-38 273,-134l-56 -42zm182 157l68 0 0 -349 412 0 0 349 68 0 0 -735 -68 0 0 324 -412 0 0 -324 -68 0 0 735z"/>
  <g id="_2200655970736">
   <path class="fil0" d="M6207 4139c1808,-567 6673,-792 8750,-757l-125 81c-2077,-34 -6942,191 -8750,758l125 -82z"/>
  </g>
  <path class="fil2" d="M6145 4180c1807,-567 6673,-792 8749,-758"/>
  <g id="_2200655972144">
   <path class="fil0" d="M19867 3529c-235,-111 -3098,-182 -3896,-147l48 81c798,-34 3661,36 3896,147l-48 -81z"/>
  </g>
  <path class="fil2" d="M19891 3569c-235,-111 -3098,-181 -3896,-147"/>
 </g>
</svg>
